<?xml version="1.0" encoding="utf-8"?>
<!-- Generator: Adobe Illustrator 15.0.0, SVG Export Plug-In . SVG Version: 6.00 Build 0)  -->
<!DOCTYPE svg PUBLIC "-//W3C//DTD SVG 1.1//EN" "http://www.w3.org/Graphics/SVG/1.1/DTD/svg11.dtd">
<svg version="1.1" id="Layer_1" xmlns="http://www.w3.org/2000/svg" xmlns:xlink="http://www.w3.org/1999/xlink" x="0px" y="0px"
	 width="177px" height="375px" viewBox="0 0 177 375" enable-background="new 0 0 177 375" xml:space="preserve">
<g>
	<path fill="#F2F1E6" d="M177,27.101C177,12.133,164.866,0,149.899,0H27.101C12.133,0,0,12.133,0,27.101v320.799
		C0,362.866,12.133,375,27.101,375h122.799C164.866,375,177,362.866,177,347.899V27.101z M165,317.766
		c0,2.339-1.896,4.234-4.234,4.234H17.234c-2.338,0-4.234-1.896-4.234-4.234V56.234C13,53.896,14.896,52,17.234,52h143.531
		c2.339,0,4.234,1.896,4.234,4.234V317.766z"/>
	<circle opacity="0.2" fill="#70B32D" cx="88.916" cy="347.985" r="16.091"/>
	<circle opacity="0.2" fill="#70B32D" cx="88.916" cy="17.698" r="3.387"/>
	<path opacity="0.2" fill="#70B32D" d="M78.414,29h21.172c2.329,0,4.234,1.137,4.234,3s-1.905,3-4.234,3H78.414
		c-2.329,0-4.234-1.137-4.234-3S76.085,29,78.414,29z"/>
</g>
</svg>
